<?xml version="1.0"?>
<svg xmlns="http://www.w3.org/2000/svg" xmlns:xlink="http://www.w3.org/1999/xlink" xmlns:svgjs="http://svgjs.com/svgjs" version="1.1" width="512" height="512" x="0" y="0" viewBox="0 0 472.258 472.258" style="enable-background:new 0 0 512 512" xml:space="preserve" class=""><g><g xmlns="http://www.w3.org/2000/svg"><path d="m404.792 342.949v-46.773l-23.958 33.543 17.487 21.859z" fill="#f5ce47" data-original="#000000" style="" class=""/><path d="m261.428 0h-16.866v39.029l124.134 143.734 35.704-49.986c-5.436-74.125-67.481-132.777-142.972-132.777z" fill="#f5ce47" data-original="#000000" style="" class=""/><path d="m134.931 302.337-50.542 63.177 4.159 5.546h25.3l21.083-28.111z" fill="#f5ce47" data-original="#000000" style="" class=""/><path d="m90.916 387.926-6.671 26.685c7.666-2.286 15.525-4.479 23.334-6.654 2.717-.757 5.507-1.535 8.328-2.33l-4.426-17.701z" fill="#f5ce47" data-original="#000000" style="" class=""/><path d="m151.797 154.887v89.675c.037 32.587 26.445 58.996 59.032 59.032h50.599c32.587-.037 58.996-26.445 59.032-59.032v-89.675l-84.332-99.665z" fill="#f5ce47" data-original="#000000" style="" class=""/><path d="m134.931 236.129v-1.258l-47.827 59.783 15.269 21.378 32.558-40.696z" fill="#f5ce47" data-original="#000000" style="" class=""/><path d="m134.931 172.244-47.657 55.182 15.099 21.141 32.558-40.697z" fill="#f5ce47" data-original="#000000" style="" class=""/><path d="m404.792 161.245-24.752 34.653 15.032 17.405 9.72-13.609z" fill="#f5ce47" data-original="#000000" style="" class=""/><path d="m337.327 236.129v39.207l32.557 40.696 15.27-21.378-47.827-59.783z" fill="#f5ce47" data-original="#000000" style="" class=""/><path d="m337.327 342.949 21.083 28.111h25.299l4.16-5.546-50.542-63.177z" fill="#f5ce47" data-original="#000000" style="" class=""/><path d="m67.858 132.777 35.704 49.986 124.134-143.734v-39.029h-16.866c-75.491 0-137.536 58.652-142.972 132.777z" fill="#f5ce47" data-original="#000000" style="" class=""/><path d="m337.327 172.244v35.626l32.557 40.697 15.1-21.141z" fill="#f5ce47" data-original="#000000" style="" class=""/><path d="m388.012 414.611-6.671-26.685h-20.564l-4.427 17.701c2.82.795 5.61 1.573 8.328 2.33 7.809 2.175 15.669 4.367 23.334 6.654z" fill="#f5ce47" data-original="#000000" style="" class=""/><path d="m404.792 228.711-23.958 33.543 14.508 18.135 9.45-13.229z" fill="#f5ce47" data-original="#000000" style="" class=""/><path d="m360.152 424.204c-33.568-9.351-62.559-17.427-72.008-31.6-10.998-16.496-15.489-47.331-17.276-72.752-3.131.398-6.284.601-9.44.608h-50.599c-3.156-.007-6.309-.21-9.44-.608-1.792 25.421-6.278 56.256-17.276 72.752-9.448 14.173-38.439 22.249-72.008 31.6-31.645 8.815-70.944 19.765-79.017 34.49l-4.521 13.564h415.123l-4.521-13.564c-8.068-14.724-47.371-25.675-79.017-34.49z" fill="#f5ce47" data-original="#000000" style="" class=""/><path d="m67.465 342.949 6.472 8.629 17.487-21.859-23.959-33.543z" fill="#f5ce47" data-original="#000000" style="" class=""/><path d="m67.465 267.16 9.451 13.229 14.508-18.135-23.959-33.543z" fill="#f5ce47" data-original="#000000" style="" class=""/><path d="m67.465 199.694 9.721 13.609 15.032-17.405-24.753-34.653z" fill="#f5ce47" data-original="#000000" style="" class=""/></g></g></svg>
