<svg id="Camada_1" data-name="Camada 1" xmlns="http://www.w3.org/2000/svg" viewBox="0 0 341.53 352.07"><defs><style>.cls-1{fill:#ffb249;}.cls-2{opacity:0.65;}.cls-3{fill:#e57b1c;}.cls-4{fill:#f2902f;}.cls-5{fill:#020202;}.cls-6{fill:#6f0000;}.cls-7{fill:#3f0505;}.cls-8{fill:#f6941d;}</style></defs><path class="cls-1" d="M514.48,297.18l-17.1.08a12.83,12.83,0,0,1-12.49-8.17h0l-27.08-73c-2.58-6.94-9.11-10.64-16.45-11.49h0c-19.76-2.32-45.45-8.6-54.79-8.55-11.5.06-18.56,3.63-35.37,3.72s-25.77-21.1-32-27.26-36.24,7.26-53.93,7.35-37.1,11.69-37,26.73-16.69,24.86-35.17,43.53S199.17,313.39,213,327s31.93,16.65,53.12,7.69,28.73-5,38.95,5.11,10.75,24.72,23.2,37,6.49,58.36,6.59,78.7,17.05,45.92,30.39,59.12,15.08,8.77,35.38-.18,36-51.5,54.5-70.17,14.8-46.08,14.72-62,34.26-47.07,51.87-64.85S514.48,297.18,514.48,297.18Z" transform="translate(-186.46 -170.93)"/><g class="cls-2"><path class="cls-3" d="M238.55,315.93c-14.33-14.18-43.11-63.54-20.9-85.7h-.59c-5.5,5.09-11.93,10.66-18.59,17.39-18.48,18.67,6.08,63.22,19.86,76.87s31.94,16.64,53.12,7.69c2.38-1,4.57-1.84,6.62-2.53C262.79,331.45,249.43,326.7,238.55,315.93Z" transform="translate(-186.46 -170.93)"/><path class="cls-3" d="M357.52,451.38c-.11-21,5.84-68.61-6.61-81.35s-13-27.82-23.2-38.29-17.77-14.54-38.95-5.29c-1,.42-1.91.81-2.86,1.18,11-1.83,17,2.25,24.51,9.65,10.22,10.13,10.74,24.72,23.19,37s6.49,58.36,6.6,78.71,17,45.92,30.38,59.12c9.94,9.84,13.45,9.88,23,5.56C379.53,506.71,357.64,474.94,357.52,451.38Z" transform="translate(-186.46 -170.93)"/></g><path class="cls-4" d="M517.32,417.92c6.54,3,8.45,10.14,4.08,20.33s11.87,28.92-3.75,44.7-19.86,9.39-29.2.15S478,467.45,483,462.34s4.52-23.25,10.91-29.7S504.9,412.24,517.32,417.92Z" transform="translate(-186.46 -170.93)"/><path class="cls-1" d="M506.18,483c-9.34-9.24-10.47-15.65-5.41-20.77s4.52-23.24,10.9-29.69c3.19-3.22,5.92-8.3,9.41-11.89a11.39,11.39,0,0,0-3.76-2.74c-12.42-5.68-17,8.27-23.37,14.72s-5.85,24.58-10.91,29.7-3.92,11.52,5.41,20.76c8,7.93,12.28,13.75,23.2,5.27C510,486.84,508.18,485,506.18,483Z" transform="translate(-186.46 -170.93)"/><path class="cls-5" d="M367.65,207.83s19.34,4,33.22,25.93c0,1.17,5.5,11.45,4.06,25.94,0,0-2.87,9.58-2.63,13.09a14.77,14.77,0,0,0,6,12.38l9.22,9a7.52,7.52,0,0,1,1.55,5,7.66,7.66,0,0,1-2.63,5.14s-4.55,3-1.44,5.38l4.91,4.43s4.54,3.86,0,9.7c-.12.47-1.32.82-1,1.64,0,0,4.19,5.72-.24,9.46,0,0-3,.82-3.47,2,0,0-.6-.17-.72,1.78s0,9.32,0,9.32-1.91,10.16-10,10.51c0,0-26-.47-45.35-5.84,0,0-5.38,20.1-6.69,35.87,0,0-3.35,25.12,1.55,35.63,0,0,51.32,83.89,52.4,86.11s-17.95,11.68-34.1,12.62-57.78-7.25-65.43-12.27-58.86-43.7-28-93,8.62-99.08,8.62-99.08Z" transform="translate(-186.46 -170.93)"/><path class="cls-6" d="M374.79,207.13s1.79-10.8-30.21-13.93S315,179.55,315,179.55H282c-5.27,1.43-30.34,8.78-45,33.65-18.4,31.27-4.41,63.24-2.87,66.6a70.68,70.68,0,0,0,16,29.2c17.39,19,40,22.56,46.66,23.37Z" transform="translate(-186.46 -170.93)"/><path class="cls-7" d="M279.32,329.8,266.4,324,308,177.22a36.69,36.69,0,0,1,12.44-5.09c4.62-.94,12.88-2.62,20.34,2.05,8.3,5.2,9.81,14.62,10.05,16.35Z" transform="translate(-186.46 -170.93)"/><path class="cls-6" d="M289.44,338.8A7.11,7.11,0,0,1,286,337c-2.93-2.42-5.49-4.87-7.18-6.54L349,191.86a33.22,33.22,0,0,1,12.54-2.7c4.44-.06,12.4-.17,18.24,5.92,6.5,6.78,5.83,16.49,5.68,18.26-12.07,17.12-87.8,124.4-92.34,125C291.06,338.63,289.44,338.8,289.44,338.8Z" transform="translate(-186.46 -170.93)"/><path class="cls-8" d="M318.08,309.71c-21.67,0-39.24,17.15-39.24,38.32s17.57,38.32,39.24,38.32,39.24-17.16,39.24-38.32S339.75,309.71,318.08,309.71Zm0,54.66c-14.51,0-26.27-11.49-26.27-25.66s11.76-25.65,26.27-25.65,26.27,11.48,26.27,25.65S332.59,364.37,318.08,364.37Z" transform="translate(-186.46 -170.93)"/><path class="cls-1" d="M243.53,299.88l-4.9-21.82,28.84-7.76-30.54-28,33.84-9.42-6.66-20,17.73-6.33-4.9-25.18,22.74-1.95c-1,2.69-1.93,5.37-2.9,8l-10.13-.13,3.79,22-16,7.13,7.74,17.81-26.3,11,24.63,23.17L248.1,284c0,5.25-1.17,14.08-1.23,15.55A8.51,8.51,0,0,1,243.53,299.88Z" transform="translate(-186.46 -170.93)"/></svg>