<?xml version="1.0" encoding="utf-8"?>
<!-- Generator: Adobe Illustrator 24.0.1, SVG Export Plug-In . SVG Version: 6.00 Build 0)  -->
<svg version="1.1" id="Camada_1" xmlns="http://www.w3.org/2000/svg" xmlns:xlink="http://www.w3.org/1999/xlink" x="0px" y="0px"
	 viewBox="0 0 841.89 595.28" style="enable-background:new 0 0 841.89 595.28;" xml:space="preserve">
<style type="text/css">
	.st0{fill:#FFB249;}
	.st1{fill:#F2902F;}
	.st2{fill:#020202;}
	.st3{fill:#6F0000;}
	.st4{fill:#3F0505;}
	.st5{fill:#F6941D;}
	.st6{fill:#7A0E0E;}
</style>
<g>
	<path class="st0" d="M533.99,223.07l-13.11-0.04c-4.47-0.01-7.88-2.35-9.52-6.34l0,0l0,0l-20.3-56.11
		c-1.93-5.33-6.92-8.21-12.54-8.91h0h0c-15.13-1.9-34.79-6.88-41.95-6.9c-8.82-0.03-14.25,2.67-27.14,2.63
		c-12.89-0.04-19.62-16.34-24.35-21.11c-4.73-4.76-27.83,5.34-41.39,5.29c-13.57-0.04-28.52,8.73-28.55,20.26
		s-12.95,18.95-27.24,33.15c-14.29,14.2,4.25,48.51,14.73,59.06C313.1,254.59,327,257,343.3,250.27s22.06-3.66,29.83,4.17
		c7.78,7.83,8.08,19.02,17.54,28.54c9.47,9.53,4.61,44.78,4.56,60.38c-0.05,15.6,12.77,35.31,22.92,45.52
		c10.14,10.21,11.51,6.82,27.13,0.09c15.62-6.73,27.94-39.25,42.23-53.45c14.29-14.2,11.64-35.23,11.68-47.44
		c0.04-12.21,26.57-35.86,40.18-49.39C552.97,225.17,533.99,223.07,533.99,223.07z"/>
	<g>
		<path class="st1" d="M322.32,235.69c-10.89-10.96-32.64-48.99-15.47-65.84l-0.45,0c-4.25,3.86-9.22,8.1-14.36,13.21
			c-14.29,14.2,4.25,48.51,14.73,59.06c10.48,10.55,24.38,12.97,40.68,6.23c1.83-0.75,3.51-1.38,5.09-1.89
			C340.8,247.75,330.59,244.02,322.32,235.69z"/>
		<path class="st1" d="M412.66,340.29c0.05-16.12,4.92-52.56-4.55-62.41c-9.46-9.85-9.77-21.41-17.54-29.5
			c-7.77-8.09-13.53-11.26-29.83-4.3c-0.74,0.31-1.47,0.6-2.2,0.88c8.43-1.33,13.04,1.84,18.73,7.56
			c7.78,7.83,8.08,19.02,17.54,28.54c9.47,9.53,4.61,44.78,4.56,60.38c-0.05,15.6,12.77,35.31,22.92,45.52
			c7.56,7.61,10.25,7.66,17.59,4.41C429.18,382.86,412.61,358.36,412.66,340.29z"/>
	</g>
	<path class="st1" d="M535.39,315.67c5,2.34,6.42,7.82,3,15.61c-3.42,7.79,8.92,22.24-3.16,34.24c-12.08,12-15.28,7.07-22.38-0.07
		c-7.1-7.14-7.93-12.06-4.02-15.95c3.91-3.89,3.62-17.79,8.55-22.7C522.31,321.9,525.91,311.23,535.39,315.67z"/>
	<path class="st0" d="M526.44,365.49c-7.1-7.14-7.93-12.06-4.02-15.95c3.91-3.89,3.62-17.79,8.55-22.7
		c2.46-2.45,4.59-6.33,7.29-9.06c-0.76-0.87-1.71-1.58-2.87-2.12c-9.48-4.44-13.08,6.23-18.01,11.13c-4.93,4.9-4.64,18.81-8.55,22.7
		c-3.91,3.89-3.08,8.81,4.02,15.95c6.09,6.13,9.32,10.62,17.75,4.19C529.3,368.45,527.96,367.02,526.44,365.49z"/>
	<g>
		<path class="st2" d="M415.45,159.72c0,0,14.22,2.99,24.42,19.53c0,0.88,4.05,8.62,2.99,19.53c0,0-2.11,7.21-1.94,9.85
			c0,0-0.53,5.45,4.4,9.32c2.26,2.26,4.52,4.52,6.77,6.77c0.27,0.36,1.28,1.77,1.14,3.78c-0.15,2.27-1.64,3.62-1.94,3.87
			c0,0-3.34,2.29-1.06,4.05l3.61,3.34c0,0,3.34,2.9,0,7.3c-0.09,0.35-0.97,0.62-0.7,1.23c0,0,3.08,4.31-0.18,7.12
			c0,0-2.2,0.62-2.55,1.5c0,0-0.44-0.13-0.53,1.34c-0.09,1.47,0,7.01,0,7.01s-1.41,7.65-7.39,7.92c0,0-19.09-0.35-33.34-4.4
			c0,0-3.96,15.13-4.93,27c0,0-2.46,18.91,1.14,26.83c0,0,37.73,63.15,38.53,64.83c0.79,1.67-13.19,8.8-25.07,9.5
			c-11.87,0.7-42.48-5.45-48.11-9.24c-5.63-3.78-43.28-32.9-20.58-70.01c22.69-37.12,6.33-74.59,6.33-74.59L415.45,159.72z"/>
		<path class="st3" d="M420.7,159.19c0,0,1.32-8.12-22.21-10.48s-21.77-10.28-21.77-10.28h-24.28c-3.88,1.07-22.31,6.6-33.07,25.33
			c-13.53,23.54-3.24,47.61-2.11,50.14c1.35,5.09,4.43,13.78,11.79,21.99c12.78,14.28,29.4,16.98,34.3,17.59L420.7,159.19z"/>
		<path class="st4" d="M350.51,251.54l-9.5-4.4l30.61-110.48c1.91-1.26,5.02-2.96,9.15-3.83c3.39-0.71,9.47-1.98,14.95,1.54
			c6.1,3.91,7.21,11.01,7.39,12.31L350.51,251.54z"/>
		<path class="st3" d="M357.95,258.32c-1.18-0.21-1.98-0.87-2.52-1.32c-2.16-1.83-4.04-3.67-5.28-4.93l51.6-104.37
			c2.02-0.88,5.24-1.98,9.22-2.03c3.27-0.05,9.12-0.13,13.41,4.46c4.78,5.1,4.28,12.41,4.17,13.74
			c-8.87,12.89-64.55,93.65-67.89,94.12C359.14,258.19,357.95,258.32,357.95,258.32z"/>
		<path class="st5" d="M379.01,236.42c-15.93,0-28.85,12.92-28.85,28.85s12.92,28.85,28.85,28.85s28.85-12.92,28.85-28.85
			S394.94,236.42,379.01,236.42z M379.01,277.57c-10.67,0-19.32-8.65-19.32-19.32c0-10.67,8.65-19.32,19.32-19.32
			c10.67,0,19.32,8.65,19.32,19.32C398.32,268.92,389.67,277.57,379.01,277.57z"/>
		<path class="st0" d="M324.19,229.02l-3.61-16.43l21.21-5.84l-22.46-21.07l24.88-7.09l-4.9-15.04l13.04-4.77l-3.6-18.96
			c5.57-0.49,11.14-0.98,16.71-1.47c-0.71,2.02-1.42,4.04-2.13,6.06l-7.45-0.1l2.79,16.54l-11.8,5.37l5.7,13.4l-19.33,8.27
			l18.11,17.44c-7.93,3.9-15.86,7.81-23.8,11.71c0,3.95-0.87,10.6-0.91,11.71C325.75,229.02,325.75,229.02,324.19,229.02z"/>
	</g>
</g>
<g>
	<g>
		<path class="st6" d="M224.44,468.3c-3.09,0-5.82-0.93-8.19-2.78c-2.38-1.85-4.16-4.23-5.34-7.12c-0.1-0.29-0.14-0.52-0.14-0.71
			c0-0.43,0.15-0.75,0.46-0.96c0.31-0.21,0.63-0.32,0.96-0.32c0.38,0,0.66,0.08,0.85,0.25c0.19,0.17,0.36,0.39,0.5,0.68
			c0.9,2.38,2.33,4.32,4.27,5.84c1.95,1.52,4.15,2.28,6.62,2.28c2.47,0,4.59-0.5,6.38-1.5s3.17-2.4,4.17-4.2
			c1-1.8,1.5-3.92,1.5-6.34v-34.26c0-0.38,0.14-0.71,0.43-1c0.29-0.29,0.66-0.43,1.14-0.43c0.43,0,0.77,0.14,1.03,0.43
			c0.26,0.28,0.39,0.62,0.39,1v34.26c0,2.94-0.63,5.54-1.89,7.8c-1.26,2.26-3.02,4-5.27,5.24
			C230.06,467.68,227.44,468.3,224.44,468.3z"/>
		<path class="st6" d="M281.64,432.04c0.43,0,0.77,0.14,1.03,0.43c0.26,0.29,0.39,0.62,0.39,1v32.69c0,0.38-0.14,0.71-0.43,1
			c-0.28,0.29-0.62,0.43-1,0.43c-0.43,0-0.77-0.14-1.03-0.43c-0.26-0.28-0.39-0.62-0.39-1v-10.11l1.14-0.93
			c0,1.52-0.38,3.06-1.14,4.63c-0.76,1.57-1.81,2.99-3.13,4.27c-1.33,1.28-2.9,2.32-4.7,3.1c-1.81,0.78-3.75,1.17-5.84,1.17
			c-3.18,0-6.02-0.83-8.51-2.49c-2.49-1.66-4.45-3.92-5.88-6.77c-1.42-2.85-2.14-6.05-2.14-9.62c0-3.61,0.72-6.8,2.17-9.58
			c1.45-2.78,3.42-4.96,5.91-6.55c2.49-1.59,5.31-2.39,8.44-2.39c2.04,0,3.96,0.37,5.77,1.1c1.8,0.74,3.38,1.77,4.74,3.1
			c1.35,1.33,2.41,2.88,3.17,4.67c0.76,1.78,1.14,3.72,1.14,5.8l-1.14-1.78v-10.33c0-0.38,0.13-0.71,0.39-1
			C280.87,432.19,281.21,432.04,281.64,432.04z M266.68,465.59c2.66,0,5.03-0.7,7.12-2.1c2.09-1.4,3.73-3.32,4.91-5.77
			c1.19-2.45,1.78-5.21,1.78-8.3c0-2.94-0.59-5.61-1.78-8.01c-1.19-2.4-2.83-4.3-4.91-5.7c-2.09-1.4-4.46-2.1-7.12-2.1
			c-2.61,0-4.96,0.68-7.05,2.03c-2.09,1.35-3.74,3.22-4.95,5.59c-1.21,2.38-1.82,5.11-1.82,8.19c0,3.09,0.59,5.85,1.78,8.3
			c1.19,2.45,2.82,4.37,4.91,5.77C261.65,464.89,264.02,465.59,266.68,465.59z"/>
		<path class="st6" d="M310.06,431.62c2.66,0,5.09,0.72,7.3,2.17c2.21,1.45,3.71,3.72,4.52,6.8l-0.93,0.64l0.36-1.35
			c0.62-1.57,1.7-2.97,3.24-4.2c1.54-1.23,3.28-2.22,5.2-2.96c1.92-0.74,3.79-1.1,5.59-1.1c2.85,0,5.2,0.62,7.05,1.85
			c1.85,1.24,3.22,2.88,4.1,4.95c0.88,2.07,1.32,4.41,1.32,7.02v20.73c0,0.38-0.13,0.71-0.39,1c-0.26,0.29-0.61,0.43-1.03,0.43
			c-0.43,0-0.77-0.14-1.03-0.43c-0.26-0.28-0.39-0.62-0.39-1v-20.44c0-2.09-0.35-4-1.03-5.73c-0.69-1.73-1.76-3.11-3.21-4.13
			c-1.45-1.02-3.34-1.53-5.66-1.53c-2.04,0-4.04,0.51-5.98,1.53c-1.95,1.02-3.55,2.4-4.81,4.13c-1.26,1.73-1.89,3.64-1.89,5.73
			v20.44c0,0.38-0.13,0.71-0.39,1c-0.26,0.29-0.61,0.43-1.03,0.43c-0.43,0-0.77-0.14-1.03-0.43c-0.26-0.28-0.39-0.62-0.39-1v-20.8
			c0-2.04-0.32-3.89-0.96-5.56s-1.65-2.99-3.03-3.99c-1.38-1-3.21-1.5-5.48-1.5c-1.99,0-3.93,0.5-5.81,1.5
			c-1.88,1-3.43,2.33-4.67,3.99c-1.24,1.66-1.85,3.51-1.85,5.56v20.8c0,0.38-0.14,0.71-0.43,1c-0.28,0.29-0.62,0.43-1,0.43
			c-0.43,0-0.77-0.14-1.03-0.43c-0.26-0.28-0.39-0.62-0.39-1v-32.69c0-0.38,0.14-0.71,0.43-1c0.28-0.29,0.62-0.43,1-0.43
			c0.43,0,0.77,0.14,1.03,0.43c0.26,0.29,0.39,0.62,0.39,1v7.76l-2.14,3.63c0-1.66,0.4-3.28,1.21-4.84
			c0.81-1.57,1.89-2.98,3.24-4.24c1.35-1.26,2.9-2.27,4.63-3.03C306.41,432,308.21,431.62,310.06,431.62z"/>
		<path class="st6" d="M388.76,432.04c0.43,0,0.77,0.14,1.03,0.43c0.26,0.29,0.39,0.62,0.39,1v32.69c0,0.38-0.14,0.71-0.43,1
			c-0.28,0.29-0.62,0.43-1,0.43c-0.43,0-0.77-0.14-1.03-0.43c-0.26-0.28-0.39-0.62-0.39-1v-10.11l1.14-0.93
			c0,1.52-0.38,3.06-1.14,4.63c-0.76,1.57-1.81,2.99-3.13,4.27c-1.33,1.28-2.9,2.32-4.7,3.1c-1.81,0.78-3.75,1.17-5.84,1.17
			c-3.18,0-6.02-0.83-8.51-2.49c-2.49-1.66-4.45-3.92-5.88-6.77c-1.42-2.85-2.14-6.05-2.14-9.62c0-3.61,0.72-6.8,2.17-9.58
			c1.45-2.78,3.42-4.96,5.91-6.55c2.49-1.59,5.31-2.39,8.44-2.39c2.04,0,3.96,0.37,5.77,1.1c1.8,0.74,3.38,1.77,4.74,3.1
			c1.35,1.33,2.41,2.88,3.17,4.67c0.76,1.78,1.14,3.72,1.14,5.8l-1.14-1.78v-10.33c0-0.38,0.13-0.71,0.39-1
			C387.99,432.19,388.34,432.04,388.76,432.04z M373.81,465.59c2.66,0,5.03-0.7,7.12-2.1c2.09-1.4,3.73-3.32,4.91-5.77
			c1.19-2.45,1.78-5.21,1.78-8.3c0-2.94-0.59-5.61-1.78-8.01c-1.19-2.4-2.83-4.3-4.91-5.7c-2.09-1.4-4.46-2.1-7.12-2.1
			c-2.61,0-4.96,0.68-7.05,2.03c-2.09,1.35-3.74,3.22-4.95,5.59c-1.21,2.38-1.82,5.11-1.82,8.19c0,3.09,0.59,5.85,1.78,8.3
			c1.19,2.45,2.82,4.37,4.91,5.77C368.77,464.89,371.15,465.59,373.81,465.59z"/>
		<path class="st6" d="M405.22,466.16c0,0.38-0.14,0.71-0.43,1c-0.29,0.29-0.62,0.43-1,0.43c-0.43,0-0.77-0.14-1.03-0.43
			c-0.26-0.28-0.39-0.62-0.39-1V416.3c0-0.38,0.14-0.71,0.43-1c0.29-0.29,0.62-0.43,1-0.43c0.43,0,0.77,0.14,1.03,0.43
			c0.26,0.29,0.39,0.62,0.39,1V466.16z"/>
		<path class="st6" d="M418.82,426.06c-0.76,0-1.37-0.21-1.82-0.64c-0.45-0.43-0.68-0.97-0.68-1.64v-0.57
			c0-0.66,0.24-1.21,0.71-1.64c0.47-0.43,1.09-0.64,1.85-0.64c0.66,0,1.22,0.21,1.67,0.64c0.45,0.43,0.68,0.97,0.68,1.64v0.57
			c0,0.67-0.23,1.21-0.68,1.64C420.11,425.85,419.53,426.06,418.82,426.06z M420.25,466.16c0,0.38-0.14,0.71-0.43,1
			c-0.28,0.29-0.62,0.43-1,0.43c-0.43,0-0.77-0.14-1.03-0.43c-0.26-0.28-0.39-0.62-0.39-1v-33.83c0-0.38,0.14-0.71,0.43-1
			c0.28-0.29,0.62-0.43,1-0.43c0.43,0,0.77,0.14,1.03,0.43c0.26,0.29,0.39,0.62,0.39,1V466.16z"/>
		<path class="st6" d="M468.68,421.36l-18.02,45.3c-0.1,0.29-0.26,0.51-0.5,0.68c-0.24,0.17-0.5,0.25-0.78,0.25
			c-0.47,0-0.83-0.12-1.07-0.36c-0.24-0.24-0.38-0.52-0.43-0.85c-0.05-0.19-0.03-0.43,0.07-0.71l19.16-47.15
			c0.14-0.38,0.32-0.63,0.53-0.75c0.21-0.12,0.49-0.18,0.82-0.18c0.38,0,0.69,0.08,0.93,0.25c0.24,0.17,0.4,0.39,0.5,0.68
			l19.16,47.15c0.05,0.14,0.07,0.33,0.07,0.57c0,0.43-0.14,0.76-0.43,1c-0.28,0.24-0.64,0.36-1.07,0.36c-0.33,0-0.63-0.08-0.89-0.25
			c-0.26-0.17-0.44-0.39-0.53-0.68l-18.59-45.87L468.68,421.36z M455.5,452.13l1-2.85h23.08l0.71,2.85H455.5z"/>
		<path class="st6" d="M494.25,431.76h16.52c0.38,0,0.7,0.14,0.96,0.43c0.26,0.29,0.39,0.59,0.39,0.93c0,0.38-0.13,0.7-0.39,0.96
			c-0.26,0.26-0.58,0.39-0.96,0.39h-16.52c-0.33,0-0.64-0.14-0.93-0.43c-0.28-0.29-0.43-0.59-0.43-0.93c0-0.38,0.14-0.7,0.43-0.96
			C493.61,431.89,493.92,431.76,494.25,431.76z M501.51,421.29c0.43,0,0.77,0.14,1.03,0.43c0.26,0.28,0.39,0.62,0.39,1v37.11
			c0,1.57,0.2,2.72,0.61,3.45c0.4,0.74,0.91,1.21,1.53,1.42c0.62,0.21,1.21,0.32,1.78,0.32c0.33,0,0.62-0.05,0.85-0.14
			c0.24-0.09,0.52-0.14,0.85-0.14c0.33,0,0.62,0.13,0.85,0.39c0.24,0.26,0.36,0.56,0.36,0.89c0,0.43-0.27,0.8-0.82,1.1
			c-0.55,0.31-1.22,0.46-2.03,0.46c-0.28,0-0.79-0.01-1.53-0.04c-0.74-0.02-1.52-0.24-2.35-0.64c-0.83-0.4-1.53-1.14-2.1-2.21
			c-0.57-1.07-0.85-2.65-0.85-4.74v-37.25c0-0.38,0.14-0.71,0.43-1C500.8,421.43,501.13,421.29,501.51,421.29z"/>
		<path class="st6" d="M535.77,468.3c-3.56,0-6.71-0.76-9.44-2.28c-2.73-1.52-4.88-3.67-6.45-6.45c-1.57-2.78-2.35-6.04-2.35-9.79
			c0-3.99,0.77-7.38,2.31-10.19s3.54-4.95,5.98-6.45c2.45-1.5,5.04-2.24,7.8-2.24c1.99,0,3.94,0.32,5.84,0.96
			c1.9,0.64,3.6,1.64,5.09,2.99c1.5,1.35,2.71,3.04,3.63,5.06c0.93,2.02,1.44,4.43,1.53,7.23c0,0.38-0.14,0.72-0.43,1.03
			s-0.62,0.46-1,0.46h-29.06l-0.43-2.71h28.7l-0.71,0.64v-1.28c-0.24-2.52-1.03-4.63-2.39-6.34c-1.35-1.71-2.98-3-4.88-3.88
			c-1.9-0.88-3.87-1.32-5.91-1.32c-1.42,0-2.92,0.32-4.49,0.96c-1.57,0.64-3.02,1.61-4.34,2.92c-1.33,1.31-2.41,2.96-3.24,4.95
			c-0.83,1.99-1.25,4.32-1.25,6.98c0,2.9,0.58,5.56,1.74,7.98c1.16,2.42,2.9,4.37,5.2,5.84c2.3,1.47,5.14,2.21,8.51,2.21
			c1.61,0,3.13-0.27,4.56-0.82c1.42-0.54,2.71-1.27,3.85-2.17c1.14-0.9,2.07-1.88,2.78-2.92c0.38-0.43,0.78-0.64,1.21-0.64
			c0.33,0,0.62,0.13,0.85,0.39c0.24,0.26,0.36,0.56,0.36,0.89c0,0.33-0.1,0.62-0.29,0.86c-1.47,1.9-3.36,3.56-5.66,4.99
			C541.13,467.59,538.57,468.3,535.77,468.3z"/>
		<path class="st6" d="M562.27,466.16c0,0.38-0.14,0.71-0.43,1c-0.28,0.29-0.62,0.43-1,0.43c-0.43,0-0.77-0.14-1.03-0.43
			c-0.26-0.28-0.39-0.62-0.39-1V416.3c0-0.38,0.14-0.71,0.43-1s0.62-0.43,1-0.43c0.43,0,0.77,0.14,1.03,0.43
			c0.26,0.29,0.39,0.62,0.39,1V466.16z"/>
		<path class="st6" d="M575.87,426.06c-0.76,0-1.37-0.21-1.82-0.64c-0.45-0.43-0.68-0.97-0.68-1.64v-0.57
			c0-0.66,0.24-1.21,0.71-1.64c0.47-0.43,1.09-0.64,1.85-0.64c0.67,0,1.22,0.21,1.67,0.64c0.45,0.43,0.68,0.97,0.68,1.64v0.57
			c0,0.67-0.23,1.21-0.68,1.64C577.17,425.85,576.59,426.06,575.87,426.06z M577.3,466.16c0,0.38-0.14,0.71-0.43,1
			c-0.29,0.29-0.62,0.43-1,0.43c-0.43,0-0.77-0.14-1.03-0.43c-0.26-0.28-0.39-0.62-0.39-1v-33.83c0-0.38,0.14-0.71,0.43-1
			c0.29-0.29,0.62-0.43,1-0.43c0.43,0,0.77,0.14,1.03,0.43c0.26,0.29,0.39,0.62,0.39,1V466.16z"/>
		<path class="st6" d="M604.86,468.3c-3.56,0-6.71-0.76-9.44-2.28c-2.73-1.52-4.88-3.67-6.45-6.45c-1.57-2.78-2.35-6.04-2.35-9.79
			c0-3.99,0.77-7.38,2.31-10.19s3.54-4.95,5.98-6.45c2.45-1.5,5.04-2.24,7.8-2.24c1.99,0,3.94,0.32,5.84,0.96
			c1.9,0.64,3.6,1.64,5.09,2.99c1.5,1.35,2.71,3.04,3.63,5.06c0.93,2.02,1.44,4.43,1.53,7.23c0,0.38-0.14,0.72-0.43,1.03
			s-0.62,0.46-1,0.46h-29.06l-0.43-2.71h28.7l-0.71,0.64v-1.28c-0.24-2.52-1.03-4.63-2.39-6.34c-1.35-1.71-2.98-3-4.88-3.88
			c-1.9-0.88-3.87-1.32-5.91-1.32c-1.42,0-2.92,0.32-4.49,0.96c-1.57,0.64-3.02,1.61-4.34,2.92c-1.33,1.31-2.41,2.96-3.24,4.95
			c-0.83,1.99-1.25,4.32-1.25,6.98c0,2.9,0.58,5.56,1.74,7.98c1.16,2.42,2.9,4.37,5.2,5.84c2.3,1.47,5.14,2.21,8.51,2.21
			c1.61,0,3.13-0.27,4.56-0.82c1.42-0.54,2.71-1.27,3.85-2.17c1.14-0.9,2.07-1.88,2.78-2.92c0.38-0.43,0.78-0.64,1.21-0.64
			c0.33,0,0.62,0.13,0.85,0.39c0.24,0.26,0.36,0.56,0.36,0.89c0,0.33-0.1,0.62-0.29,0.86c-1.47,1.9-3.36,3.56-5.66,4.99
			C610.22,467.59,607.66,468.3,604.86,468.3z M603.72,421.08l-6.41,5.41c-0.24,0.19-0.46,0.36-0.68,0.5
			c-0.21,0.14-0.44,0.21-0.68,0.21c-0.24,0-0.44-0.09-0.61-0.29c-0.17-0.19-0.25-0.38-0.25-0.57c0-0.14,0.04-0.28,0.11-0.43
			s0.18-0.29,0.32-0.43l5.77-6.13c0.38-0.57,0.95-0.86,1.71-0.86h0.71c0.38,0,0.71,0.06,1,0.18c0.29,0.12,0.52,0.34,0.71,0.68
			l5.77,6.05c0.14,0.14,0.25,0.29,0.32,0.43c0.07,0.14,0.11,0.29,0.11,0.43c0,0.19-0.08,0.38-0.25,0.57
			c-0.17,0.19-0.37,0.29-0.61,0.29c-0.19,0-0.4-0.07-0.64-0.21c-0.24-0.14-0.47-0.31-0.71-0.5l-6.48-5.06L603.72,421.08z"/>
	</g>
</g>
</svg>
